<svg xmlns="http://www.w3.org/2000/svg" xmlns:xlink="http://www.w3.org/1999/xlink" version="1.1" width="1000" height="1000" viewBox="0 0 1000 1000" xml:space="preserve">
<desc>Created with Fabric.js 3.5.0</desc>
<defs>
</defs>
<rect x="0" y="0" width="100%" height="100%" fill="#ffffff"/>
<g transform="matrix(1 0 0 1 504.8135 500)" style="" id="60298">
		
<path xml:space="preserve" font-family="Acme" font-size="726" font-style="normal" font-weight="normal" style="stroke: none; stroke-width: 1; stroke-dasharray: none; stroke-linecap: butt; stroke-dashoffset: 0; stroke-linejoin: miter; stroke-miterlimit: 4; is-custom-font: none; font-file-url: none; fill: rgb(0,0,0); fill-rule: nonzero; opacity: 1; white-space: pre;" d="M-214.90 236.05L-214.90 236.05Q-310.00 236.05-368.08 172.16Q-426.16 108.28-426.16 3.01L-426.16 3.01Q-426.16-116.78-353.56-198.82Q-280.96-280.86-174.97-280.86L-174.97-280.86Q-132.86-280.86-96.92-273.24Q-60.98-265.61-45.74-257.63L-45.74-257.63L-31.22-249.64L-73.33-148.73Q-95.11-163.25-132.13-175.95Q-169.16-188.66-197.47-188.66L-197.47-188.66Q-256.28-188.66-291.85-147.28Q-327.43-105.89-327.43-37.65L-327.43-37.65Q-327.43 54.55-293.67 106.10Q-259.91 157.64-199.65 157.64L-199.65 157.64Q-160.45 157.64-125.60 146.75L-125.60 146.75L-125.60 34.22L-219.25 34.22L-211.99-39.10L-37.75-39.10L-44.29 79.24L-39.20 204.83Q-145.93 236.05-214.90 236.05ZM439.23 177.97L349.93 234.60L228.69 46.57L111.80 235.33L33.40 196.85L176.42-20.95L22.51-218.42L112.53-277.23L229.42-95.73L341.95-280.13L418.18-235.12L285.32-28.21L439.23 177.97Z"/></g>
</svg>